<?xml version="1.0" encoding="UTF-8" standalone="no"?>
<svg width="127px" height="97px" viewBox="0 0 127 97" version="1.1" xmlns="http://www.w3.org/2000/svg">
    <!-- Generator: Sketch 41 (35326) - http://www.bohemiancoding.com/sketch -->
    <title>Slice 1</title>
    <desc>Created with Sketch.</desc>
    <defs></defs>
    <g id="Page-1" stroke="none" stroke-width="1" fill="none" fill-rule="evenodd">
        <g id="symbol_cvut_plna_samostatna_verze" fill="#FFFFFF">
            <path d="M108.873,25.461 L112.503,22.812 C111.13,21.34 109.657,19.574 109.657,16.729 C109.657,14.57 111.13,12.216 112.994,11.234 C112.013,10.056 110.443,8.977 108.185,8.977 C105.243,8.977 102.789,11.136 102.789,13.981 C102.789,15.943 104.065,17.611 105.536,18.397 C105.536,21.144 106.812,23.597 108.873,25.461 L108.873,25.461 Z M89.445,6.132 L92.487,0.735 L87.973,0.735 C87.973,1.716 87.09,2.796 86.009,2.796 C84.832,2.796 84.048,2.011 84.048,0.735 L80.026,0.735 C80.026,1.913 79.142,2.796 78.063,2.796 C76.985,2.796 76.1,1.914 76.1,0.735 L71.587,0.735 L74.235,5.936 C76.296,5.74 78.258,5.641 80.22,5.641 C83.853,5.641 86.992,5.837 89.445,6.132 L89.445,6.132 Z M81.204,54.015 C80.713,53.13 80.222,52.051 80.222,50.089 C80.222,47.537 81.694,45.38 84.833,44.006 C86.895,43.024 88.464,42.142 91.212,40.768 C97.688,37.431 99.944,31.153 99.944,24.678 C99.944,21.439 99.061,18.888 97.98,16.73 C98.275,18.496 98.57,19.968 98.57,21.734 C98.57,28.504 96.216,33.508 90.034,36.549 C86.108,38.511 84.147,39.297 81.791,40.475 C78.456,42.24 76.592,44.496 76.592,47.243 C76.592,50.678 78.357,53.228 81.204,54.015 L81.204,54.015 Z M77.376,52.738 C76.297,51.658 75.12,49.696 75.12,47.144 C75.12,43.908 77.278,41.159 81.105,39.197 C84.441,37.628 86.403,36.843 89.346,35.468 C95.528,32.426 97.393,27.227 97.393,21.634 C97.393,16.238 95.625,13.489 94.154,11.724 C95.234,13.785 95.528,16.238 95.528,18.298 C95.528,24.283 93.761,29.483 86.797,32.231 C83.264,33.703 81.007,34.193 77.965,35.566 C73.157,37.825 71.293,40.474 71.293,44.398 C71.293,48.127 73.647,51.658 77.376,52.738 L77.376,52.738 Z M73.647,51.953 C71.979,50.579 69.82,48.324 69.82,44.301 C69.82,40.08 71.588,36.941 77.083,34.587 C80.614,33.115 82.479,32.428 85.814,31.153 C92.879,28.504 94.351,23.303 94.351,18.202 C94.351,13.295 92.584,10.45 90.425,8.585 C91.701,10.155 92.487,12.805 92.487,15.552 C92.487,22.028 90.034,25.657 83.067,28.111 C80.221,28.995 77.18,29.878 74.041,31.055 C68.349,33.214 65.405,36.354 65.405,41.652 C65.405,47.145 69.625,51.268 73.647,51.953 L73.647,51.953 Z M69.723,51.268 C65.799,49.304 63.934,45.085 63.934,41.357 C63.934,35.96 67.27,32.134 72.862,30.074 C76.297,28.798 79.045,28.013 82.478,26.836 C89.151,24.481 91.31,21.34 91.31,15.356 C91.31,11.922 90.034,8.978 87.973,7.31 C88.661,8.096 88.857,9.077 88.857,9.96 C88.857,11.627 87.973,12.413 86.698,12.413 C85.913,12.413 85.128,11.922 85.03,11.138 C85.423,11.432 85.717,11.529 86.108,11.529 C87.189,11.529 87.776,10.745 87.776,9.666 C87.776,7.998 86.207,7.115 84.637,6.919 C83.263,6.723 81.79,6.723 80.122,6.723 C78.455,6.723 76.885,6.821 74.825,6.919 C76.099,8.684 80.318,8.194 81.595,9.077 C80.516,8.978 79.437,8.978 78.357,9.273 C78.357,9.96 78.063,10.745 77.376,10.745 C76.101,10.745 75.513,9.371 74.629,6.919 L69.625,7.311 C68.841,7.409 68.546,7.703 68.644,8.293 L69.135,13.198 C69.135,13.395 69.331,13.492 69.528,13.492 C69.723,13.492 69.92,13.394 70.018,13.1 C70.213,12.708 70.803,11.824 72.275,11.824 C74.433,11.824 76.101,13.787 76.199,16.044 C75.416,14.964 73.648,13.983 70.706,13.983 C68.448,13.983 66.585,14.669 63.641,14.669 C60.501,14.669 58.735,13.492 58.735,12.02 C58.735,11.333 58.833,10.941 59.226,10.45 C57.95,11.039 56.969,12.118 56.969,13.885 C56.969,16.043 58.539,18.3 63.151,18.3 C67.371,18.3 69.333,15.651 73.159,15.651 C74.926,15.651 75.807,16.534 75.807,17.514 C75.807,18.398 75.023,19.182 73.649,19.182 C71.981,19.182 70.804,18.3 70.214,17.416 C70.116,17.221 70.019,17.123 69.821,17.123 C69.528,17.123 69.43,17.319 69.43,17.514 L69.528,22.225 C69.528,22.813 69.821,23.108 70.508,23.011 C73.452,22.716 76.493,22.323 79.34,22.127 C84.638,21.637 88.268,18.105 88.268,14.18 C88.268,13.591 88.268,13.1 88.169,12.512 C88.661,13.297 88.857,14.083 88.857,15.064 C88.857,18.695 86.894,21.441 80.614,23.11 C77.278,23.992 74.826,24.385 71.979,25.072 C64.424,26.839 59.518,32.627 59.518,39.103 C59.518,45.085 63.738,50.481 69.723,51.268 L69.723,51.268 Z M36.854,15.846 C37.247,14.963 37.344,14.178 37.344,13.589 C37.344,12.314 36.756,11.136 36.166,10.645 C37.638,10.645 38.913,11.725 38.913,13.196 C38.913,14.57 38.031,15.453 36.854,15.846 L36.854,15.846 Z M54.908,39.197 L58.047,37.53 C59.127,30.955 63.051,26.344 69.919,24.677 C66.289,24.872 63.149,24.97 58.734,25.166 C54.024,25.363 46.273,25.952 40.876,26.344 C39.797,26.442 39.11,26.051 38.815,25.166 C38.522,24.186 37.933,22.321 37.834,21.242 C37.736,20.359 37.933,19.77 38.718,19.181 C40.287,18.102 41.857,16.827 41.857,14.178 C41.857,11.332 39.404,9.468 37.148,9.468 C36.362,9.468 35.774,9.567 35.284,9.763 C34.695,9.37 34.107,9.076 32.928,9.076 C31.261,9.076 29.789,10.155 29.396,11.038 C26.551,10.842 24.294,12.903 24.49,15.65 C24.883,15.258 25.667,14.864 26.551,14.864 C27.63,14.864 28.611,15.65 28.611,16.827 C28.611,17.907 28.415,19.28 28.415,20.752 C28.415,25.266 32.046,27.621 32.046,29.975 C32.046,31.153 31.163,32.134 29.985,32.134 C30.672,34.587 32.928,35.862 35.97,35.862 C37.933,35.862 39.699,35.667 42.544,35.667 C50.688,35.666 54.22,36.549 54.908,39.197 L54.908,39.197 Z M85.128,66.965 L86.108,66.965 C86.009,63.826 85.226,61.667 83.95,59.41 C83.263,58.136 82.381,56.761 81.693,55.877 C81.301,55.289 80.811,55.094 80.221,55.094 C79.828,55.094 79.534,55.387 79.828,55.877 C80.613,57.153 81.692,59.115 83.066,62.157 C81.888,62.354 81.594,62.943 81.594,63.924 C81.596,65.493 83.067,66.965 85.128,66.965 L85.128,66.965 Z M33.026,16.238 C33.124,13.49 31.947,12.018 30.279,11.332 C30.573,11.234 30.966,11.038 31.554,11.038 C32.83,11.038 34.204,12.118 34.204,13.786 C34.205,14.667 33.91,15.649 33.026,16.238 L33.026,16.238 Z M95.921,85.313 C95.528,84.43 94.253,83.548 92.684,83.548 C91.8,83.548 91.212,83.743 90.819,83.939 C90.918,83.154 91.703,82.272 93.273,82.272 C95.137,82.272 96.118,83.744 95.921,85.313 L95.921,85.313 Z M95.332,89.534 C94.744,88.846 93.762,88.258 92.487,88.258 C90.917,88.258 90.133,88.945 89.739,89.435 C89.543,88.258 90.524,86.786 92.388,86.786 C94.352,86.785 95.332,88.16 95.332,89.534 L95.332,89.534 Z M25.569,42.729 C26.257,41.061 27.826,39.884 29.691,39.492 C30.083,38.902 30.573,38.413 31.065,38.02 L27.729,24.087 C27.336,23.106 27.042,22.124 27.042,20.751 C27.042,19.279 27.336,17.807 27.336,17.022 C27.336,16.335 26.943,16.139 26.551,16.139 C26.257,16.139 26.06,16.139 25.962,16.238 L25.962,16.63 C25.962,18.887 24.588,20.652 22.332,20.652 C20.075,20.652 18.308,18.789 18.308,16.63 C18.308,14.471 20.075,12.706 22.332,12.706 C22.724,12.706 23.215,12.706 23.804,12.902 C24.49,11.135 26.649,9.566 28.906,9.86 C27.336,7.898 24.982,6.721 22.333,6.721 C16.641,6.721 12.128,10.841 12.128,16.63 C12.128,22.027 16.543,26.344 22.038,26.442 L25.569,42.729 Z M40.778,63.826 C42.25,63.826 43.82,63.041 45.292,61.569 C47.941,59.017 51.67,55.191 53.926,53.719 C55.889,52.445 57.164,51.952 58.439,51.952 C59.225,51.952 59.813,52.149 60.401,52.737 L63.737,50.185 C59.911,47.34 58.144,43.612 58.046,39 C52.748,41.845 48.921,45.769 44.506,49.499 C43.72,50.087 43.328,50.382 42.641,50.382 C41.954,50.382 41.366,49.694 40.189,48.518 C39.207,47.536 39.011,46.948 39.011,46.261 C39.011,45.083 39.403,44.691 39.403,43.121 C39.403,39.98 36.951,38.214 34.595,38.214 C32.633,38.214 31.161,39.295 30.67,40.668 C28.021,40.864 26.353,42.826 26.353,44.886 C26.353,45.378 26.451,45.769 26.549,46.064 C25.567,46.654 24.586,47.831 24.586,49.4 C24.586,51.069 25.469,52.639 26.94,53.129 C26.745,52.834 26.647,52.444 26.647,51.952 C26.647,51.069 27.432,50.285 28.51,50.285 C29.394,50.285 29.982,50.578 30.669,51.362 C31.552,52.542 32.436,53.621 33.907,54.895 C35.281,56.073 36.851,56.857 38.323,57.742 C39.206,58.33 39.893,59.114 39.893,60.292 C39.893,61.078 39.304,61.961 38.127,62.256 C38.62,63.334 39.601,63.826 40.778,63.826 L40.778,63.826 Z M35.186,44.692 C35.087,42.729 33.616,41.159 31.751,40.767 C32.046,40.572 32.537,40.277 33.321,40.277 C34.695,40.277 35.775,41.454 35.775,42.729 C35.774,43.711 35.479,44.201 35.186,44.692 L35.186,44.692 Z M46.077,96.304 C45.684,95.813 45.488,95.323 45.488,94.733 C45.488,93.556 46.468,92.673 47.842,92.673 C50.001,92.673 51.178,95.027 54.024,95.027 C57.262,95.027 58.832,92.673 61.776,92.673 C63.248,92.673 65.307,93.556 65.307,95.42 C65.307,95.715 65.209,96.01 65.014,96.205 C68.348,96.205 70.705,93.36 70.705,88.649 C70.705,82.077 70.508,79.425 70.41,75.796 C72.961,75.698 75.415,74.422 75.021,70.4 C74.333,70.988 73.549,71.283 72.667,71.283 C71.489,71.283 70.606,70.4 70.606,69.124 C70.606,68.535 70.606,67.848 70.705,67.162 L82.184,66.867 C81.106,66.278 80.32,65.1 80.32,63.728 C80.32,62.746 80.714,62.059 81.499,61.666 C80.419,59.409 79.536,57.643 78.457,55.976 C77.868,55.093 77.182,54.209 75.807,54.209 C72.766,54.111 66.585,54.993 63.445,56.073 C61.09,56.857 58.833,58.624 58.833,62.647 C58.833,66.375 60.109,72.949 60.01,83.252 C60.01,84.724 59.617,85.214 58.735,85.409 C57.95,85.606 55.89,85.802 54.614,85.606 C53.927,85.508 53.339,85.018 52.946,83.546 C52.455,81.484 50.984,79.423 48.04,79.423 C45.391,79.423 43.037,81.387 43.428,84.329 C42.153,85.115 41.564,86.391 41.564,87.567 C41.564,88.743 41.956,89.726 42.447,90.315 C42.153,91.003 42.054,91.393 42.054,92.081 C42.053,94.537 44.212,96.304 46.077,96.304 L46.077,96.304 Z M32.242,47.342 C31.653,46.165 30.378,45.478 28.906,45.478 C28.318,45.478 27.827,45.576 27.434,45.673 C27.63,44.888 28.513,44.201 29.789,44.201 C31.456,44.201 32.536,45.478 32.242,47.342 L32.242,47.342 Z M49.412,85.313 C49.02,84.43 47.744,83.548 46.174,83.548 C45.291,83.548 44.702,83.743 44.31,83.939 C44.409,83.154 45.193,82.272 46.763,82.272 C48.627,82.272 49.608,83.744 49.412,85.313 L49.412,85.313 Z M41.072,93.851 C40.778,93.261 40.679,92.673 40.679,92.084 C40.679,91.496 40.777,91.006 40.973,90.514 C40.482,89.632 40.189,88.65 40.189,87.571 C40.189,86.099 40.875,84.726 41.856,83.842 L35.773,57.448 C34.791,56.958 33.81,56.369 33.025,55.681 C31.651,54.504 30.867,53.621 29.591,52.15 C29.199,51.755 28.904,51.56 28.511,51.56 C27.923,51.56 27.531,51.953 27.727,52.738 L29.002,58.82 L31.651,60.685 L39.01,92.281 L41.072,93.851 Z M48.824,89.534 C48.235,88.846 47.254,88.258 45.979,88.258 C44.409,88.258 43.623,88.945 43.23,89.435 C43.035,88.258 44.016,86.786 45.88,86.786 C47.842,86.785 48.824,88.16 48.824,89.534 L48.824,89.534 Z M0.353,96.892 L6.337,92.282 L13.696,60.686 L16.346,58.821 L22.233,33.509 L20.957,27.621 C19.485,27.326 18.209,26.934 17.13,26.345 L0.353,96.892 Z M92.585,96.304 C92.192,95.813 91.995,95.323 91.995,94.733 C91.995,93.556 92.977,92.673 94.351,92.673 C96.509,92.673 97.687,95.027 100.533,95.027 C103.77,95.027 105.341,92.673 108.284,92.673 C109.756,92.673 111.816,93.556 111.816,95.42 C111.816,95.715 111.717,96.01 111.521,96.205 C114.858,96.205 117.213,93.36 117.213,88.649 C117.213,82.37 116.624,75.404 115.936,68.437 C117.703,68.044 119.372,66.278 119.372,64.021 C119.372,63.236 119.078,62.354 118.586,61.569 C118.096,62.257 117.214,62.843 115.741,63.236 C113.68,63.826 111.13,64.121 109.265,64.121 C105.046,64.121 103.671,63.826 101.709,63.236 C101.61,60.588 99.943,58.429 98.373,56.958 C100.826,57.938 101.905,58.43 105.83,58.43 C118.39,58.43 126.141,49.992 126.141,40.375 C126.141,33.409 121.726,30.171 117.703,27.815 L113.974,30.465 C118.488,32.526 121.431,35.566 121.431,39.687 C121.431,44.201 117.801,47.439 113.581,47.439 C109.068,47.439 105.535,44.201 105.535,39.785 C105.535,36.451 107.106,33.998 110.05,31.642 C112.993,29.287 117.506,26.441 119.959,23.792 C121.235,22.418 122.314,20.26 122.216,18.592 C123.885,17.806 125.16,16.138 125.16,13.98 C125.16,11.135 122.413,8.976 119.469,8.976 C117.702,8.976 115.74,10.056 114.759,11.233 C116.526,11.92 118.195,14.275 118.195,16.728 C118.195,18.789 116.919,20.554 115.446,22.026 C113.19,24.282 110.246,25.951 107.008,28.6 C103.083,31.839 100.728,35.665 100.728,39.981 C100.728,45.966 105.34,51.559 112.6,51.559 C114.956,51.559 116.821,51.069 118.195,50.185 C115.839,52.933 111.424,54.306 106.812,54.306 C102.789,54.306 100.041,53.718 97.098,51.559 C94.449,49.597 92.388,44.986 92.487,41.55 C90.328,42.826 87.776,44.004 85.619,44.986 C82.577,46.459 81.596,48.028 81.596,50.676 C81.596,54.208 84.049,56.956 85.128,59.016 C86.6,61.665 87.091,64.02 87.287,66.474 C87.875,72.459 91.31,75.205 97.393,75.205 C100.139,75.205 103.77,75.008 105.243,74.812 C105.831,77.561 106.518,80.797 106.518,83.251 C106.518,84.723 106.124,85.213 105.243,85.408 C104.458,85.605 102.396,85.801 101.122,85.605 C100.434,85.507 99.846,85.017 99.453,83.545 C98.963,81.483 97.491,79.422 94.548,79.422 C91.898,79.422 89.543,81.386 89.936,84.328 C88.662,85.114 88.072,86.39 88.072,87.566 C88.072,88.742 88.465,89.725 88.955,90.314 C88.662,91.002 88.563,91.392 88.563,92.08 C88.562,94.537 90.721,96.304 92.585,96.304 L92.585,96.304 Z" id="Shape"></path>
        </g>
    </g>
</svg>